<?xml version="1.0" standalone="no"?>
<!DOCTYPE svg PUBLIC "-//W3C//DTD SVG 20010904//EN"
 "http://www.w3.org/TR/2001/REC-SVG-20010904/DTD/svg10.dtd">
<svg version="1.0" xmlns="http://www.w3.org/2000/svg"
 width="212.000000pt" height="212.000000pt" viewBox="0 0 212.000000 212.000000"
 preserveAspectRatio="xMidYMid meet">
<metadata>
Created by potrace 1.11, written by Peter Selinger 2001-2013
</metadata>
<g transform="translate(0.000000,212.000000) scale(0.100000,-0.100000)"
fill="#000000" stroke="none">
<path d="M1348 2091 c-15 -12 -37 -44 -49 -71 l-23 -50 -30 28 c-73 67 -112
77 -151 38 -14 -14 -26 -32 -26 -41 -1 -8 -3 -19 -4 -25 -1 -5 -3 -28 -4 -50
l-1 -39 -42 15 c-74 26 -102 27 -131 4 -31 -25 -35 -70 -12 -135 19 -53 19
-54 -12 -52 -80 4 -135 -22 -145 -68 -6 -26 23 -83 56 -114 20 -19 23 -27 15
-38 -6 -7 -17 -13 -24 -13 -20 0 -92 -57 -97 -78 -11 -39 18 -80 77 -110 l57
-28 -41 -48 c-23 -26 -42 -51 -42 -57 -1 -5 -2 -15 -3 -21 -4 -26 25 -66 55
-77 18 -6 52 -11 75 -11 49 0 49 1 31 -43 -18 -44 -21 -111 -6 -135 9 -14 10
-27 3 -42 -9 -21 -11 -20 -29 21 -61 137 -226 252 -434 304 -98 25 -284 22
-356 -5 -40 -15 -58 -53 -51 -105 4 -25 7 -47 7 -50 -1 -14 55 -156 77 -195
118 -206 323 -352 496 -352 57 0 78 5 127 30 l58 30 16 -34 c8 -18 18 -55 20
-81 10 -100 15 -140 25 -188 6 -27 12 -61 15 -74 19 -101 42 -121 142 -121
133 0 159 28 129 138 -45 166 -53 339 -21 447 23 82 42 115 64 115 11 0 42 18
69 39 l50 40 27 -55 c20 -40 36 -60 58 -69 50 -21 84 1 123 78 l25 48 46 -41
c25 -22 50 -41 54 -41 5 -1 15 -2 22 -3 28 -4 66 17 76 42 6 15 12 51 14 80 1
28 5 52 8 52 4 0 23 -7 43 -15 61 -26 105 -23 133 9 28 33 28 47 5 118 l-19
56 64 5 c49 4 70 10 89 28 37 34 31 69 -21 133 l-44 55 32 10 c18 6 49 25 70
42 64 52 44 110 -51 153 -23 11 -42 23 -42 28 0 5 15 25 34 44 82 85 50 158
-73 167 -28 2 -51 7 -51 11 -1 3 6 29 15 58 19 66 19 80 -3 105 -26 30 -69 35
-129 14 -29 -10 -53 -15 -54 -12 0 3 -2 23 -4 44 -7 83 -22 111 -68 122 -30 8
-69 -11 -114 -53 l-32 -31 -26 52 c-34 66 -43 75 -80 83 -22 4 -38 0 -57 -15z
m139 -426 c73 -21 161 -106 186 -179 70 -206 -83 -412 -298 -401 -187 9 -322
198 -269 377 50 166 211 252 381 203z"/>
<path d="M1325 1543 c-89 -46 -126 -123 -99 -212 17 -58 57 -98 115 -115 48
-13 48 -13 100 -3 66 13 129 97 129 169 0 39 -29 106 -56 130 -50 44 -135 58
-189 31z"/>
</g>
</svg>
