<?xml version="1.0" standalone="no"?>
<!DOCTYPE svg PUBLIC "-//W3C//DTD SVG 20010904//EN"
 "http://www.w3.org/TR/2001/REC-SVG-20010904/DTD/svg10.dtd">
<svg version="1.0" xmlns="http://www.w3.org/2000/svg"
 width="512.000000pt" height="512.000000pt" viewBox="0 0 512.000000 512.000000"
 preserveAspectRatio="xMidYMid meet">
<metadata>
Created by potrace 1.11, written by Peter Selinger 2001-2013
</metadata>
<g transform="translate(0.000000,512.000000) scale(0.100000,-0.100000)"
fill="#000000" stroke="none">
<path d="M929 5116 c-2 -2 -20 -6 -39 -9 -19 -3 -48 -8 -64 -12 -23 -6 -28 -5
-22 6 4 8 1 6 -8 -5 -9 -12 -23 -17 -36 -13 -13 3 -18 1 -13 -6 4 -7 0 -8 -11
-4 -10 4 -15 3 -11 -3 3 -6 0 -10 -8 -10 -15 0 -158 -60 -167 -70 -3 -3 -23
-17 -45 -30 -22 -13 -46 -30 -53 -37 -7 -7 -20 -13 -28 -13 -10 0 -12 -5 -8
-12 6 -10 4 -10 -8 0 -13 10 -18 10 -24 1 -4 -8 -3 -9 4 -5 7 4 12 3 12 -2 0
-6 -11 -13 -25 -16 -14 -4 -25 -11 -25 -17 0 -7 6 -6 18 2 15 13 16 12 4 -3
-8 -10 -18 -16 -22 -15 -5 1 -19 -12 -32 -29 -13 -18 -30 -30 -41 -28 -15 2
-16 0 -5 -14 10 -12 10 -14 0 -8 -8 5 -15 -2 -22 -18 -5 -14 -14 -26 -20 -26
-6 0 -8 -5 -4 -12 4 -6 3 -8 -2 -5 -6 3 -16 2 -24 -4 -11 -6 -12 -9 -2 -9 7 0
10 -5 7 -10 -4 -6 -11 -8 -16 -5 -5 3 -6 -1 -3 -9 3 -9 2 -16 -2 -16 -5 0 -18
-18 -28 -40 -11 -22 -23 -40 -27 -40 -4 0 -10 -13 -14 -30 -4 -16 -11 -30 -16
-30 -5 0 -9 -4 -9 -9 0 -5 -5 -22 -11 -38 -7 -15 -13 -36 -14 -46 -1 -9 -10
-24 -21 -33 -10 -8 -14 -13 -7 -10 8 4 7 -6 -2 -37 -7 -24 -16 -61 -21 -82
-11 -56 -16 -3300 -4 -3350 4 -22 11 -57 14 -77 8 -53 10 -62 16 -68 10 -10
42 -105 45 -133 2 -16 7 -31 11 -35 4 -4 4 1 1 11 -4 11 -3 16 3 12 6 -3 10
-12 10 -19 0 -6 14 -34 31 -60 16 -27 28 -54 25 -62 -3 -7 0 -11 7 -9 16 5 80
-83 71 -97 -4 -7 -2 -8 4 -4 7 4 12 2 12 -3 0 -6 8 -11 17 -11 9 0 14 -3 11
-6 -6 -6 58 -74 69 -74 3 0 13 -7 22 -15 9 -8 33 -30 53 -48 21 -19 34 -37 31
-41 -4 -4 0 -4 9 -1 10 4 29 -2 47 -14 16 -12 34 -21 41 -21 7 0 10 -7 6 -16
-5 -14 -4 -15 9 -4 12 10 15 9 15 -5 0 -10 3 -16 6 -13 10 11 109 -29 106 -43
-3 -10 0 -10 12 1 14 10 16 10 17 -6 0 -11 3 -14 5 -8 4 9 17 8 49 -2 25 -7
45 -10 45 -7 0 3 12 -2 26 -12 15 -9 23 -12 20 -6 -4 6 -2 11 3 11 6 0 11 -4
11 -10 0 -9 3282 -8 3372 1 20 2 34 7 31 12 -2 4 1 7 6 7 6 0 11 -5 11 -12 0
-6 6 -4 13 5 6 10 25 20 42 23 16 3 63 19 104 36 41 17 80 31 87 31 7 0 11 4
8 9 -5 7 10 12 29 9 5 -1 6 3 2 9 -3 5 1 10 10 10 10 0 13 5 9 13 -6 9 -4 9 8
-1 14 -11 19 -8 38 17 11 17 26 30 33 28 6 -1 12 4 13 11 1 6 2 15 3 18 0 4 9
0 18 -7 11 -10 14 -10 9 -2 -4 7 -2 13 3 13 6 0 11 7 11 16 0 10 5 14 15 10
10 -3 18 1 22 11 11 28 36 52 46 46 6 -3 7 -1 3 5 -3 6 3 16 14 22 11 6 20 18
20 26 0 10 6 14 15 10 8 -3 14 -2 14 2 -3 20 2 33 11 27 6 -4 7 1 3 11 -4 11
-2 15 4 11 6 -4 13 3 16 14 3 12 10 18 16 14 6 -3 9 0 5 8 -3 8 2 21 10 30 8
8 12 17 9 21 -4 3 -1 6 6 6 7 0 9 5 5 12 -5 8 -1 9 12 4 14 -5 16 -4 8 4 -8 8
-3 26 15 63 33 68 48 105 57 142 4 16 14 36 21 44 9 8 11 17 5 23 -6 6 -4 31
4 66 11 47 14 361 13 1715 0 926 -4 1655 -9 1652 -4 -3 -12 14 -16 37 -9 49
-11 57 -13 61 -2 1 -4 12 -7 24 -2 12 -15 47 -29 78 -14 30 -23 60 -20 65 3 5
0 12 -6 16 -8 5 -9 3 -4 -6 5 -9 4 -11 -4 -6 -9 6 -9 11 1 24 7 9 8 13 2 9
-16 -9 -85 97 -78 120 4 12 3 14 -3 6 -9 -13 -53 34 -75 81 -6 14 -15 26 -20
26 -17 0 -77 63 -71 74 3 6 3 8 -2 4 -4 -4 -14 0 -22 10 -9 10 -12 11 -7 2 8
-16 -35 17 -76 60 -14 14 -20 19 -15 11 8 -12 7 -13 -5 -6 -8 5 -38 24 -67 41
-29 17 -49 34 -45 38 3 4 -2 4 -12 0 -15 -6 -17 -4 -11 6 6 9 4 11 -4 5 -12
-7 -81 17 -110 39 -16 12 -43 17 -36 6 2 -4 -13 -2 -34 6 -22 7 -52 17 -68 21
-28 7 -3316 17 -3324 9z"/>
<path d="M296 4815 c-11 -8 -15 -15 -9 -15 6 0 16 7 23 15 16 19 11 19 -14 0z"/>
</g>
</svg>
